<mxfile host="65bd71144e">
    <diagram id="kqZ4zBWBgX88GJ24YCe7" name="Page-1">
        <mxGraphModel dx="293" dy="515" grid="1" gridSize="10" guides="1" tooltips="1" connect="1" arrows="1" fold="1" page="1" pageScale="1" pageWidth="850" pageHeight="1100" math="0" shadow="0">
            <root>
                <mxCell id="0"/>
                <mxCell id="1" parent="0"/>
                <object label="Course" Course="Course" id="9">
                    <mxCell style="whiteSpace=wrap;html=1;align=center;fontColor=#F0F0F0;" parent="1" vertex="1">
                        <mxGeometry x="190" y="220" width="100" height="40" as="geometry"/>
                    </mxCell>
                </object>
                <object label="Enrollment" open="eligible" closed="not eligible" id="10">
                    <mxCell style="ellipse;whiteSpace=wrap;html=1;align=center;fontColor=#F0F0F0;" parent="1" vertex="1">
                        <mxGeometry x="100" y="100" width="100" height="40" as="geometry"/>
                    </mxCell>
                </object>
                <object label="Department" organization="divison" department="name" id="11">
                    <mxCell style="ellipse;whiteSpace=wrap;html=1;align=center;fontColor=#F0F0F0;" parent="1" vertex="1">
                        <mxGeometry x="20" y="220" width="100" height="40" as="geometry"/>
                    </mxCell>
                </object>
                <object label="Start date" Date="date/time" id="12">
                    <mxCell style="ellipse;whiteSpace=wrap;html=1;align=center;fontColor=#F0F0F0;" parent="1" vertex="1">
                        <mxGeometry x="300" y="100" width="100" height="40" as="geometry"/>
                    </mxCell>
                </object>
                <object label="Course Number" Course="number" id="13">
                    <mxCell style="ellipse;whiteSpace=wrap;html=1;align=center;fontColor=#F0F0F0;" parent="1" vertex="1">
                        <mxGeometry x="100" y="340" width="100" height="40" as="geometry"/>
                    </mxCell>
                </object>
                <mxCell id="16" value="Grade level" style="ellipse;whiteSpace=wrap;html=1;align=center;fontColor=#F0F0F0;" parent="1" vertex="1">
                    <mxGeometry x="300" y="340" width="100" height="40" as="geometry"/>
                </mxCell>
                <mxCell id="17" value="Location" style="ellipse;whiteSpace=wrap;html=1;align=center;fontColor=#F0F0F0;" parent="1" vertex="1">
                    <mxGeometry x="360" y="220" width="100" height="40" as="geometry"/>
                </mxCell>
                <mxCell id="18" value="" style="endArrow=none;html=1;rounded=0;fontColor=#F0F0F0;" parent="1" edge="1">
                    <mxGeometry relative="1" as="geometry">
                        <mxPoint x="120" y="240" as="sourcePoint"/>
                        <mxPoint x="190" y="240" as="targetPoint"/>
                    </mxGeometry>
                </mxCell>
                <mxCell id="19" value="" style="endArrow=none;html=1;rounded=0;fontColor=#F0F0F0;" parent="1" edge="1">
                    <mxGeometry relative="1" as="geometry">
                        <mxPoint x="290" y="239.5" as="sourcePoint"/>
                        <mxPoint x="360" y="239.5" as="targetPoint"/>
                    </mxGeometry>
                </mxCell>
                <mxCell id="20" value="" style="endArrow=none;html=1;rounded=0;fontColor=#F0F0F0;exitX=0.5;exitY=0;exitDx=0;exitDy=0;" parent="1" source="13" edge="1">
                    <mxGeometry relative="1" as="geometry">
                        <mxPoint x="140" y="260" as="sourcePoint"/>
                        <mxPoint x="210" y="260" as="targetPoint"/>
                    </mxGeometry>
                </mxCell>
                <mxCell id="21" value="" style="endArrow=none;html=1;rounded=0;fontColor=#F0F0F0;exitX=0.92;exitY=1.05;exitDx=0;exitDy=0;exitPerimeter=0;entryX=0.44;entryY=-0.075;entryDx=0;entryDy=0;entryPerimeter=0;" parent="1" source="9" target="16" edge="1">
                    <mxGeometry relative="1" as="geometry">
                        <mxPoint x="280" y="270" as="sourcePoint"/>
                        <mxPoint x="350" y="270" as="targetPoint"/>
                    </mxGeometry>
                </mxCell>
                <mxCell id="22" value="" style="endArrow=none;html=1;rounded=0;fontColor=#F0F0F0;entryX=0.25;entryY=0;entryDx=0;entryDy=0;exitX=0.5;exitY=1;exitDx=0;exitDy=0;" parent="1" source="10" target="9" edge="1">
                    <mxGeometry relative="1" as="geometry">
                        <mxPoint x="160" y="180" as="sourcePoint"/>
                        <mxPoint x="230" y="180" as="targetPoint"/>
                    </mxGeometry>
                </mxCell>
                <mxCell id="23" value="" style="endArrow=none;html=1;rounded=0;fontColor=#F0F0F0;entryX=0.38;entryY=1.05;entryDx=0;entryDy=0;entryPerimeter=0;exitX=0.82;exitY=-0.05;exitDx=0;exitDy=0;exitPerimeter=0;" parent="1" source="9" target="12" edge="1">
                    <mxGeometry relative="1" as="geometry">
                        <mxPoint x="280" y="180" as="sourcePoint"/>
                        <mxPoint x="350" y="180" as="targetPoint"/>
                    </mxGeometry>
                </mxCell>
            </root>
        </mxGraphModel>
    </diagram>
</mxfile>